<?xml version="1.0" encoding="UTF-8"?><svg id="Layer_2" xmlns="http://www.w3.org/2000/svg" viewBox="0 0 386.13 101.91"><defs><style>.cls-1{fill:#231f20;}.cls-1,.cls-2{fill-rule:evenodd;}.cls-2{fill:#00a6fb;}</style></defs><g id="Base22"><g><path id="Fill-1" class="cls-1" d="M128.39,22.74v9.32h-.32c-4.26-6.48-12.95-11.37-24.32-11.37-11.99,0-21.83,5.02-28.81,12.34,2.77,3.09,6.99,10.93,8.33,16.87,4.02-8.15,12.32-13.73,21.75-13.73,12.95,0,24.01,11.06,24.01,24.8s-11.05,24.8-24.01,24.8c-9.34,0-17.58-5.48-21.64-13.51-1.2,4.15-2.69,11.25-8.68,17.29,6.73,7.03,16.3,11.7,28.27,11.7,10.42,0,19.9-4.42,25.11-11.37h.32v9.32h16.43V22.74h-16.43Z"/><path id="Fill-2" class="cls-1" d="M40.27,85.76c-13.74,0-23.85-10.58-23.85-24.79s10.11-24.8,23.85-24.8,23.85,10.58,23.85,24.8-10.11,24.79-23.85,24.79m1.42-65.07c-10.74,0-21.01,5.05-24.96,11.37h-.32V0H0V99.19H16.43v-9.32h.32c3.95,6.32,14.22,11.37,24.96,11.37,19.9,0,39.8-14.69,39.8-40.27S61.6,20.69,41.7,20.69"/><path id="Fill-3" class="cls-1" d="M186.15,55.12l-16.58-3.16c-6.31-1.1-9.95-3.47-9.95-8.06,0-6.15,6.95-9.63,14.05-9.63,5.37,0,12.48,1.74,20.54,8.53l9.32-11.53c-10.43-7.42-19.75-10.58-30.33-10.58-11.9,0-20.61,4.65-25.49,11.29v26.07c4.03,4.14,11.15,7.22,22.97,9.39l9.32,1.74c6,1.11,9.95,3.79,9.95,8.84,0,4.27-5.68,9.64-15.16,9.64-8.53,0-18.16-4.9-24.01-11.22l-3.06,3.11v14.21c8.06,4.94,16.65,7.48,26.28,7.48,23.22,0,32.38-14.53,32.38-25.74s-6.63-17.85-20.22-20.38"/><path id="Fill-4" class="cls-1" d="M224.69,38.81c9.07-5.13,19.67-4.04,28.45,4.42l-38.5,21.76c-3.26-11.22,.98-21.06,10.05-26.18Zm40.27,22.77c-1.22,9.4-5.72,16.85-13.42,21.2-10.04,5.67-23.65,3.75-30.22-5.96l55.27-31.25-1.48-2.61c-14.69-25.99-41.77-25.74-55.65-17.89-13.12,7.42-19.97,18.64-21.67,30.17,6.36,2.83,11.61,9.57,11.61,19.83,0,2.88-.56,7.22-2.84,11.6,11.38,13.78,32,20.13,52.54,8.52,11.89-6.89,19.47-19.17,21.77-33.71l-15.91,.1Z"/><path id="Fill-5" class="cls-2" d="M373.14,51.81v6.96h-31.25v-7.7l20.01-15.79c2.48-2,3.61-4.08,3.61-6.36,0-3.75-3.67-6.49-7.96-6.49-3.88,0-7.23,2.08-9.3,5.29l-7.23-2.75c3.68-5.49,9.63-9.1,17-9.1,9.7,0,15.26,6.09,15.26,13.18,0,4.48-2.61,8.23-7.03,11.57l-14.59,11.05v.13h21.48Zm-37.21,0v6.96h-31.26v-7.7l20.01-15.79c2.48-2,3.61-4.08,3.61-6.36,0-3.75-3.68-6.49-7.96-6.49-3.88,0-7.23,2.08-9.3,5.29l-7.23-2.75c3.68-5.49,9.64-9.1,17-9.1,9.7,0,15.26,6.09,15.26,13.18,0,4.48-2.61,8.23-7.02,11.57l-14.59,11.05v.13h21.49ZM374.14,4.98h-72.95c-6.62,0-11.99,5.41-11.99,12.07v28l-19.15,10.81h19.15v4.45c0,6.67,5.37,12.07,11.99,12.07h72.95c6.62,0,11.99-5.4,11.99-12.07V17.06c0-6.66-5.37-12.07-11.99-12.07Z"/><path id="Fill-6" class="cls-1" d="M287.26,95.94h.62c.73,0,1.31-.24,1.31-.83,0-.52-.38-.86-1.21-.86-.35,0-.59,.03-.73,.07v1.62Zm-.03,3.21h-1.31v-5.66c.52-.1,1.24-.17,2.17-.17,1.07,0,1.55,.17,1.97,.42,.31,.24,.55,.69,.55,1.24,0,.62-.48,1.1-1.17,1.31v.07c.55,.21,.86,.62,1.04,1.38,.17,.86,.28,1.21,.41,1.42h-1.42c-.17-.21-.27-.72-.45-1.38-.1-.62-.45-.9-1.17-.9h-.62v2.28Zm-3.49-2.97c0,2.52,1.87,4.52,4.42,4.52s4.32-2,4.32-4.49-1.83-4.56-4.35-4.56-4.38,2.04-4.38,4.52Zm10.18,0c0,3.21-2.52,5.73-5.8,5.73s-5.83-2.52-5.83-5.73,2.59-5.66,5.83-5.66,5.8,2.52,5.8,5.66Z"/></g></g></svg>